HIERARCHY
ROOT Pelvis
{
	OFFSET 0.000000 0.000000 0.000000
	CHANNELS 6 Xposition Yposition Zposition Xrotation Yrotation Zrotation
	JOINT LeftUpLeg_virtual
	{
		OFFSET 0.000000 0.000000 0.000000
		CHANNELS 3 Xrotation Yrotation Zrotation
		JOINT LeftUpLeg
		{
			OFFSET 8.479700 -4.795502 -0.379100
			CHANNELS 3 Xrotation Yrotation Zrotation
			JOINT LeftLeg
			{
				OFFSET 0.024144 -32.555107 0.112900
				CHANNELS 3 Xrotation Yrotation Zrotation
				JOINT LeftFoot
				{
					OFFSET -0.024144 -32.638630 -3.012600
					CHANNELS 3 Xrotation Yrotation Zrotation
					JOINT LeftToeBase
					{
						OFFSET 0.970200 -13.225400 11.864200
						CHANNELS 3 Xrotation Yrotation Zrotation
						End Site
						{
							OFFSET 0 0 0
						}
					}
				}
			}
		}
	}
	JOINT RightUpLeg_virtual
	{
		OFFSET 0.000000 0.000000 0.000000
		CHANNELS 3 Xrotation Yrotation Zrotation
		JOINT RightUpLeg
		{
			OFFSET -8.479700 -4.795502 -0.379100
			CHANNELS 3 Xrotation Yrotation Zrotation
			JOINT RightLeg
			{
				OFFSET -0.023144 -32.555092 0.112900
				CHANNELS 3 Xrotation Yrotation Zrotation
				JOINT RightFoot
				{
					OFFSET 0.023144 -32.638641 -3.012700
					CHANNELS 3 Xrotation Yrotation Zrotation
					JOINT RightToeBase
					{
						OFFSET -0.970200 -13.225400 11.864200
						CHANNELS 3 Xrotation Yrotation Zrotation
						End Site
						{
							OFFSET 0 0 0
						}
					}
				}
			}
		}
	}
	JOINT Hips_virtual
	{
		OFFSET 0.000000 0.000000 0.000000
		CHANNELS 3 Xrotation Yrotation Zrotation
		JOINT Hips
		{
			OFFSET -0.000000 -0.000000 -0.000000
			CHANNELS 3 Xrotation Yrotation Zrotation
			JOINT Spine
			{
				OFFSET 0.000000 7.722000 1.166200
				CHANNELS 3 Xrotation Yrotation Zrotation
				JOINT Spine1
				{
					OFFSET 0.000000 12.024101 0.248800
					CHANNELS 3 Xrotation Yrotation Zrotation
					JOINT Spine2
					{
						OFFSET 0.000000 11.502998 -0.491200
						CHANNELS 3 Xrotation Yrotation Zrotation
						JOINT Neck_virtual
						{
							OFFSET 0.000000 0.000000 0.000000
							CHANNELS 3 Xrotation Yrotation Zrotation
							JOINT Neck
							{
								OFFSET 0.000000 18.430702 -3.123100
								CHANNELS 3 Xrotation Yrotation Zrotation
								JOINT Head
								{
									OFFSET 0.000000 9.051102 1.034000
									CHANNELS 3 Xrotation Yrotation Zrotation
									End Site
									{
										OFFSET 0 0 0
									}
								}
							}
						}
						JOINT LeftShoulder_virtual
						{
							OFFSET 0.000000 0.000000 0.000000
							CHANNELS 3 Xrotation Yrotation Zrotation
							JOINT LeftShoulder
							{
								OFFSET 6.197800 13.665199 -4.064700
								CHANNELS 3 Xrotation Yrotation Zrotation
								JOINT LeftArm
								{
									OFFSET 7.778100 -0.187103 -1.709300
									CHANNELS 3 Xrotation Yrotation Zrotation
									JOINT LeftForeArm
									{
										OFFSET 22.049376 0.000000 0.000000
										CHANNELS 3 Xrotation Yrotation Zrotation
										JOINT LeftHand
										{
											OFFSET 23.009392 0.000000 0.000000
											CHANNELS 3 Xrotation Yrotation Zrotation
											End Site
											{
												OFFSET 0 0 0
											}
										}
									}
								}
							}
						}
						JOINT RightShoulder_virtual
						{
							OFFSET 0.000000 0.000000 0.000000
							CHANNELS 3 Xrotation Yrotation Zrotation
							JOINT RightShoulder
							{
								OFFSET -6.197800 13.665199 -4.064700
								CHANNELS 3 Xrotation Yrotation Zrotation
								JOINT RightArm
								{
									OFFSET -7.778100 -0.187103 -1.709300
									CHANNELS 3 Xrotation Yrotation Zrotation
									JOINT RightForeArm
									{
										OFFSET -22.049376 0.000000 0.000000
										CHANNELS 3 Xrotation Yrotation Zrotation
										JOINT RightHand
										{
											OFFSET -23.009392 0.000000 0.000000
											CHANNELS 3 Xrotation Yrotation Zrotation
											End Site
											{
												OFFSET 0 0 0
											}
										}
									}
								}
							}
						}
					}
				}
			}
		}
	}
}
MOTION
Frames: 9
Frame Time: 0.03333333
0.067295 81.500801 0.476135 0.000000 0.000000 0.000000 1.940154 1.906570 -0.362074 -31.850473 8.665440 5.648701 56.235779 -4.652998 -0.540247 4.197715 0.031835 -2.014012 0.000000 0.000000 0.000000 1.940154 1.906570 -0.362074 -14.604987 -7.480302 1.851814 21.826839 2.702644 -3.878738 -9.836963 -0.005907 0.253452 0.000000 0.000000 0.000000 1.940154 1.906570 -0.362074 0.000000 0.000000 0.000000 6.178692 -1.227892 0.242314 2.498167 -2.419468 1.232352 0.000000 0.000000 0.000000 2.471487 -2.375263 1.342052 -0.476783 2.129174 -0.237604 0.000000 0.000000 0.000000 2.471487 -2.375263 1.342052 0.352373 -9.169219 -14.380741 9.011955 -24.442291 -57.554610 -0.000005 -11.061373 0.000012 0.000000 0.000000 0.000000 2.471487 -2.375263 1.342052 0.552466 4.135211 15.717232 3.061861 28.096190 49.279876 0.000003 23.795805 -0.000008 0.000000 0.000000 0.000000 
0.068868 81.500595 0.478113 0.000000 0.000000 0.000000 1.939830 1.906961 -0.361777 -31.850678 8.663806 5.651083 56.234232 -4.651057 -0.539899 4.195676 0.033039 -2.015602 0.000000 0.000000 0.000000 1.939830 1.906961 -0.361777 -14.604353 -7.480145 1.850106 21.829146 2.701985 -3.878762 -9.840020 -0.004746 0.254896 0.000000 0.000000 0.000000 1.939830 1.906961 -0.361777 0.000000 0.000000 0.000000 6.179133 -1.226341 0.242205 2.498233 -2.417831 1.232011 0.000000 0.000000 0.000000 2.471640 -2.373642 1.341658 -0.476553 2.128852 -0.237603 0.000000 0.000000 0.000000 2.471640 -2.373642 1.341658 0.352426 -9.169999 -14.382083 9.010349 -24.438422 -57.554391 0.000001 -11.063226 -0.000016 0.000000 0.000000 0.000000 2.471640 -2.373642 1.341658 0.552000 4.136470 15.717544 3.065229 28.095307 49.277940 0.000005 23.806290 -0.000043 0.000000 0.000000 0.000000 
0.847267 81.396339 1.431053 0.000000 0.000000 0.000000 1.781251 2.098353 -0.207183 -31.922426 7.865062 6.811375 55.422863 -3.693006 -0.371248 3.224351 0.626657 -2.809570 0.000000 0.000000 0.000000 1.781251 2.098353 -0.207183 -14.108773 -7.394470 0.983902 22.648936 2.394177 -3.827002 -11.011821 0.569871 0.947703 0.000000 0.000000 0.000000 1.781251 2.098353 -0.207183 0.000000 0.000000 0.000000 6.394030 -0.465251 0.180670 2.528580 -1.613456 1.064342 0.000000 0.000000 0.000000 2.545423 -1.578220 1.147881 -0.365329 1.971524 -0.237603 0.000000 0.000000 0.000000 2.545423 -1.578220 1.147881 0.372032 -9.555645 -15.041970 8.216917 -22.540965 -57.446713 0.000004 -11.975301 -0.000001 0.000000 0.000000 0.000000 2.545423 -1.578220 1.147881 0.321550 4.755070 15.877634 5.691793 26.887829 47.980716 -0.000001 30.206614 0.000005 0.000000 0.000000 0.000000 
1.702129 81.281189 2.406448 0.000000 0.000000 0.000000 1.665070 2.257544 -0.036665 -31.660522 7.097846 8.062042 53.794263 -2.184260 -0.165592 2.408102 1.228851 -4.050687 0.000000 0.000000 0.000000 1.665070 2.257544 -0.036665 -13.601996 -7.315922 -0.000312 23.359684 2.122371 -3.700448 -12.103073 1.193797 1.679505 0.000000 0.000000 0.000000 1.665070 2.257544 -0.036665 0.000000 0.000000 0.000000 6.607309 0.279401 0.103229 2.561886 -0.802064 0.887916 0.000000 0.000000 0.000000 2.621668 -0.776054 0.944272 -0.268467 1.815119 -0.237641 0.000000 0.000000 0.000000 2.621668 -0.776054 0.944272 0.371285 -9.985388 -15.641495 7.405626 -20.584766 -57.407173 -0.000001 -12.913624 0.000017 0.000000 0.000000 0.000000 2.621668 -0.776054 0.944272 0.086858 5.408573 15.971889 7.876289 25.924900 46.850064 0.000002 35.801123 0.000013 0.000000 0.000000 0.000000 
2.620865 81.159576 3.404295 0.000000 0.000000 0.000000 1.594350 2.389872 0.132044 -31.123646 6.409576 9.381035 51.417493 -0.350845 0.055445 1.751364 1.852817 -5.564483 0.000000 0.000000 0.000000 1.594350 2.389872 0.132044 -13.052499 -7.246749 -1.069437 23.930669 2.295672 -3.468944 -13.097006 1.464783 2.314683 0.000000 0.000000 0.000000 1.594350 2.389872 0.132044 0.000000 0.000000 0.000000 6.804026 1.001542 0.011145 2.597820 0.014282 0.707129 0.000000 0.000000 0.000000 2.699914 0.030977 0.735977 -0.187440 1.661603 -0.240756 0.000000 0.000000 0.000000 2.699914 0.030977 0.735977 0.351720 -10.465481 -16.222264 6.640037 -18.590120 -57.375986 -0.000003 -13.844618 -0.000004 0.000000 0.000000 0.000000 2.699914 0.030977 0.735977 -0.150899 6.103864 16.004807 9.788272 25.097638 45.794492 0.000001 40.905074 -0.000004 0.000000 0.000000 0.000000 
3.589123 81.033066 4.424191 0.000000 0.000000 0.000000 1.552971 2.477548 0.284084 -30.346117 5.865191 10.741979 48.358764 1.597344 0.275824 1.334185 2.483392 -7.136421 0.000000 0.000000 0.000000 1.552971 2.477548 0.284084 -12.425110 -7.183817 -2.171908 24.306806 2.555782 -3.202129 -13.992372 1.722730 2.957527 0.000000 0.000000 0.000000 1.552971 2.477548 0.284084 0.000000 0.000000 0.000000 6.983512 1.712630 -0.067866 2.638306 0.836919 0.525891 0.000000 0.000000 0.000000 2.782037 0.844183 0.526968 -0.122796 1.512454 -0.250106 0.000000 0.000000 0.000000 2.782037 0.844183 0.526968 0.318800 -10.976561 -16.835865 5.957346 -16.580771 -57.290899 -0.000004 -14.755654 -0.000003 0.000000 0.000000 0.000000 2.782037 0.844183 0.526968 -0.390984 6.837859 16.006133 11.486023 24.335225 44.764920 0.000009 45.649651 -0.000029 0.000000 0.000000 0.000000 
4.592651 80.903358 5.464284 0.000000 0.000000 0.000000 1.514465 2.494926 0.410682 -29.333890 5.519371 12.116197 44.676551 3.552273 0.492061 1.235068 3.090988 -8.614029 0.000000 0.000000 0.000000 1.514465 2.494926 0.410682 -11.682728 -7.124009 -3.265917 24.466515 2.891565 -2.934219 -14.793481 1.976578 3.614379 0.000000 0.000000 0.000000 1.514465 2.494926 0.410682 0.000000 0.000000 0.000000 7.156407 2.431459 -0.127454 2.686965 1.669192 0.346728 0.000000 0.000000 0.000000 2.871593 1.666854 0.319724 -0.073544 1.368002 -0.267718 0.000000 0.000000 0.000000 2.871593 1.666854 0.319724 0.278647 -11.485314 -17.514056 5.346106 -14.579411 -57.118912 -0.000005 -15.638181 -0.000003 0.000000 0.000000 0.000000 2.871593 1.666854 0.319724 -0.633525 7.599391 16.012036 12.969116 23.591610 43.739958 0.000019 50.077332 -0.000030 0.000000 0.000000 0.000000 
5.618764 80.773354 6.519155 0.000000 0.000000 0.000000 1.460561 2.429115 0.509523 -28.087131 5.384288 13.466252 40.424027 5.496107 0.718006 1.517706 3.633341 -10.019718 0.000000 0.000000 0.000000 1.460561 2.429115 0.509523 -10.811961 -7.072702 -4.332030 24.464710 3.289174 -2.688254 -15.699528 2.221772 4.294478 0.000000 0.000000 0.000000 1.460561 2.429115 0.509523 0.000000 0.000000 0.000000 7.332422 3.167031 -0.166037 2.746365 2.511819 0.170692 0.000000 0.000000 0.000000 2.971079 2.499714 0.115288 -0.037535 1.227707 -0.293217 0.000000 0.000000 0.000000 2.971079 2.499714 0.115288 0.235420 -11.961474 -18.249926 4.756288 -12.605098 -56.873554 -0.000001 -16.472596 0.000005 0.000000 0.000000 0.000000 2.971079 2.499714 0.115288 -0.878956 8.373142 16.048790 14.214993 22.844070 42.719090 -0.000006 54.184960 0.000009 0.000000 0.000000 0.000000 
6.669111 80.624329 7.582365 0.000000 0.000000 0.000000 1.392092 2.286898 0.549135 -27.165240 5.495189 14.729265 36.663305 6.470889 0.801106 2.124899 3.040310 -11.365400 0.000000 0.000000 0.000000 1.392092 2.286898 0.549135 -9.855495 -7.044940 -5.341172 24.333983 3.745363 -2.476822 -16.605884 2.452422 5.001610 0.000000 0.000000 0.000000 1.392092 2.286898 0.549135 0.000000 0.000000 0.000000 7.507217 3.917522 -0.150148 2.816004 3.361223 -0.001608 0.000000 0.000000 0.000000 3.079898 3.339264 -0.085632 -0.011992 1.090642 -0.324609 0.000000 0.000000 0.000000 3.079898 3.339264 -0.085632 0.189731 -12.394353 -19.005082 4.134162 -10.665545 -56.607423 -0.000006 -17.237429 -0.000012 0.000000 0.000000 0.000000 3.079898 3.339264 -0.085632 -1.126995 9.145588 16.121017 15.207435 22.085681 41.720271 -0.000005 57.962604 0.000012 0.000000 0.000000 0.000000 
